<?xml version="1.0" encoding="UTF-8" standalone="no"?>
<!-- Created with Inkscape (http://www.inkscape.org/) -->

<svg
   width="196.11168mm"
   height="54.900967mm"
   viewBox="0 0 196.11167 54.900965"
   version="1.1"
   id="svg33255"
   xmlns="http://www.w3.org/2000/svg"
   xmlns:svg="http://www.w3.org/2000/svg">
  <defs
     id="defs33252" />
  <g
     id="layer1"
     transform="translate(-41.903212,-72.020945)">
    <path
       id="path10931-3"
       d="M 73.635013,126.30132 C 64.638649,126.3245 54.916288,122.30245 49.288735,116.239 43.656404,110.17041 41.230851,101.09176 43.207441,93.503212 45.183371,85.9172 51.87326,78.61141 59.970246,75.215037 c 8.091401,-3.394031 18.869776,-3.422297 26.984367,-0.06984 8.119716,3.354577 14.858937,10.626118 16.886127,18.201564 2.02802,7.578559 -0.3371,16.669139 -5.928025,22.766419 -5.58639,6.09232 -15.280843,10.16496 -24.277702,10.18814 z"
       style="fill:#7ad7ff;fill-opacity:0.436638;stroke:#2c61a0;stroke-width:1.24098;stroke-linecap:round;stroke-linejoin:round;stroke-miterlimit:4;stroke-dasharray:none;stroke-opacity:1" />
    <path
       style="fill:none;stroke:#001592;stroke-width:1.32292;stroke-linecap:round;stroke-linejoin:round;stroke-miterlimit:4;stroke-dasharray:none;stroke-opacity:1"
       d="m 103.1118,101.36327 c -3.49793,1.91483 -10.4387,2.55195 -14.616443,-0.28613 -3.373467,3.0268 -9.787469,5.05161 -15.373118,0.40821 -3.729161,2.10033 -7.670916,4.54779 -13.319116,0.41494 -4.021808,2.32214 -4.353534,4.45609 -10.295439,1.39616 -1.183694,0.96604 -2.424081,1.27882 -4.896938,1.31173"
       id="path25100" />
    <path
       style="fill:#cccccc;fill-opacity:1;stroke:#000000;stroke-width:0.5;stroke-linecap:round;stroke-linejoin:round;stroke-miterlimit:4;stroke-dasharray:none;stroke-opacity:1"
       d="m 54.904226,100.09008 -0.433513,-2.680877 c 0,0 -3.404424,-1.157548 -5.170675,-1.157986 -1.719236,-4.51e-4 -5.033596,1.124657 -5.033596,1.124657 l -0.09007,3.816656 z"
       id="path11896" />
    <path
       style="fill:#d4d8d8;fill-opacity:1;stroke:#000000;stroke-width:0.300723px;stroke-linecap:butt;stroke-linejoin:miter;stroke-opacity:1"
       d="m 64.553875,84.450846 c -4.161211,0.751703 -5.23454,3.168471 -5.811169,5.552506 -0.554432,2.442048 -0.547725,3.554049 -0.58134,4.468749 -0.03594,0.977889 -0.188138,1.451784 -0.977523,2.000739 -0.379213,0.26371 -3.079627,2.773828 -2.010575,3.59333 1.089467,0.83516 1.954194,0.30192 2.438485,-0.390097 0.238561,-0.340887 0.480355,-0.840639 0.604956,-0.793003 0.183934,0.07032 -0.929475,0.937723 0.559114,0.741633 6.3552,-0.837176 16.822896,-0.871952 16.596134,-1.582874 -0.602675,-1.275604 -1.162376,-2.185283 -2.03783,-3.413685 -0.676228,-0.948858 -0.926719,-3.226413 -1.475028,-5.273735 -1.043013,-3.10172 -3.139813,-5.13315 -7.305224,-4.903563 z"
       id="path1128" />
    <g
       id="g17832"
       transform="matrix(1.0067009,-0.03144625,0.02902275,0.9291163,49.107227,69.865615)">
      <path
         style="fill:#d4d8d8;fill-opacity:1;stroke:#000000;stroke-width:0.257557;stroke-linecap:butt;stroke-linejoin:miter;stroke-miterlimit:4;stroke-dasharray:none;stroke-opacity:1"
         d="m 36.983894,25.755429 c -1.925809,0.307896 -2.443223,1.412276 -2.731296,2.506185 -0.278376,1.120863 -0.16733,1.101296 -0.309638,2.055119 -0.196645,1.002646 -0.289769,1.068987 -0.105401,2.048936 0,0 -0.03954,0.401644 0.324303,0.349507 2.926531,-0.419352 6.878729,-0.272054 7.056444,-0.647003 -0.132907,-0.616867 -0.106506,-0.856398 -0.280339,-1.538338 -0.132737,-0.520723 -0.397315,-1.496312 -0.631106,-2.445427 -0.4521,-1.439898 -1.400079,-2.396091 -3.322967,-2.328979 z"
         id="path1128-3" />
      <ellipse
         style="fill:#ecf0f0;fill-opacity:1;stroke:#000000;stroke-width:0.277389;stroke-linecap:round;stroke-linejoin:round;stroke-miterlimit:4;stroke-dasharray:none;stroke-opacity:1;paint-order:markers stroke fill"
         id="path5278-6"
         cx="37.307259"
         cy="29.87343"
         rx="1.1711458"
         ry="1.0994519" />
      <path
         style="fill:none;stroke:#000000;stroke-width:0.138694px;stroke-linecap:butt;stroke-linejoin:miter;stroke-opacity:1"
         d="m 36.481973,30.09507 c 0.621455,0.932546 0.686852,0.198729 0.854891,0.183939 0.169323,-0.01491 0.354339,0.730975 0.788931,-0.317866"
         id="path5830-7" />
      <ellipse
         style="fill:#cdd7d7;fill-opacity:1;stroke:#000000;stroke-width:0.138694;stroke-linecap:round;stroke-linejoin:round;stroke-miterlimit:4;stroke-dasharray:none;stroke-opacity:1;paint-order:markers stroke fill"
         id="path7549-5"
         cx="37.289188"
         cy="29.921026"
         rx="0.33927605"
         ry="0.32006696" />
      <path
         style="fill:none;stroke:#000000;stroke-width:0.138694px;stroke-linecap:butt;stroke-linejoin:miter;stroke-opacity:1"
         d="m 36.062155,30.050697 -1.264973,0.165461"
         id="path7877-3" />
      <path
         style="fill:none;stroke:#000000;stroke-width:0.138694px;stroke-linecap:butt;stroke-linejoin:miter;stroke-opacity:1"
         d="M 36.198704,30.438043 35.06968,30.987277"
         id="path7879-5" />
      <path
         style="fill:none;stroke:#000000;stroke-width:0.138694px;stroke-linecap:butt;stroke-linejoin:miter;stroke-opacity:1"
         d="m 36.443573,30.787828 -1.062583,0.83811"
         id="path7881-6" />
      <path
         style="fill:none;stroke:#000000;stroke-width:0.138694px;stroke-linecap:butt;stroke-linejoin:miter;stroke-opacity:1"
         d="m 38.512528,29.842555 1.259847,-0.136463"
         id="path7883-2" />
      <path
         style="fill:none;stroke:#000000;stroke-width:0.138694px;stroke-linecap:butt;stroke-linejoin:miter;stroke-opacity:1"
         d="m 38.511281,30.255966 1.18079,0.166168"
         id="path7885-9" />
      <path
         style="fill:none;stroke:#000000;stroke-width:0.138694px;stroke-linecap:butt;stroke-linejoin:miter;stroke-opacity:1"
         d="m 38.260907,30.633458 c 0.125711,0.02446 1.333398,0.467108 1.333398,0.467108"
         id="path7887-1" />
      <ellipse
         style="fill:#0c1a2a;fill-opacity:1;stroke:#2c61a0;stroke-width:0.416084;stroke-linecap:round;stroke-linejoin:round;stroke-miterlimit:4;stroke-dasharray:none;stroke-opacity:1;paint-order:markers stroke fill"
         id="path8010-2"
         cx="35.452003"
         cy="29.094479"
         rx="0.47025663"
         ry="0.49240547" />
      <ellipse
         style="fill:#ffffff;fill-opacity:1;stroke:none;stroke-width:0.473087;stroke-linecap:round;stroke-linejoin:round;stroke-miterlimit:4;stroke-dasharray:none;stroke-opacity:1;paint-order:markers stroke fill"
         id="path9314-7"
         cx="35.697056"
         cy="29.059896"
         rx="0.21457437"
         ry="0.20907108" />
      <ellipse
         style="fill:#0c1a2a;fill-opacity:1;stroke:#2c61a0;stroke-width:0.416084;stroke-linecap:round;stroke-linejoin:round;stroke-miterlimit:4;stroke-dasharray:none;stroke-opacity:1;paint-order:markers stroke fill"
         id="ellipse9979-0"
         cx="39.025688"
         cy="28.817915"
         rx="0.47025663"
         ry="0.49240547" />
      <ellipse
         style="fill:#ffffff;fill-opacity:1;stroke:none;stroke-width:0.473087;stroke-linecap:round;stroke-linejoin:round;stroke-miterlimit:4;stroke-dasharray:none;stroke-opacity:1;paint-order:markers stroke fill"
         id="ellipse9981-9"
         cx="39.28315"
         cy="28.793913"
         rx="0.21457437"
         ry="0.20907108" />
      <path
         style="fill:none;stroke:#000000;stroke-width:0.138694px;stroke-linecap:butt;stroke-linejoin:miter;stroke-opacity:1"
         d="m 35.972005,28.178831 c -0.446438,-0.183472 -0.872166,-0.167506 -1.264973,0.165461"
         id="path11158-3" />
      <path
         style="fill:none;stroke:#000000;stroke-width:0.138694px;stroke-linecap:butt;stroke-linejoin:miter;stroke-opacity:1"
         d="M 39.534758,27.899452 C 39.08832,27.71598 38.662592,27.731946 38.269785,28.064913"
         id="path11297-6" />
    </g>
    <path
       id="rect4324"
       style="fill:#f2f2ef;fill-opacity:1;stroke:#222222;stroke-width:1.40426;stroke-linecap:round;stroke-linejoin:round;stroke-miterlimit:4;stroke-dasharray:none;stroke-opacity:1"
       d="m 100.71272,95.534921 c -1.320458,0.344458 -3.138295,0.777955 -5.390498,1.366549 -7.802465,0.879627 -35.456024,3.1034 -42.530142,3.8789 -1.985328,0.47308 -2.309607,1.62965 -2.138211,3.33433 0.305131,1.64805 1.280582,3.47572 2.418627,3.51742 13.651986,-0.64341 33.284286,-2.74575 42.922802,-3.60603 4.201982,-0.78443 4.239872,-2.05574 5.757222,-3.25872 1.01549,-1.318142 1.2844,-2.289193 0.96799,-3.794293 -0.29257,-1.107894 -1.26293,-1.64932 -2.00779,-1.438152 z" />
    <path
       style="fill:none;stroke:#222222;stroke-width:0.842555;stroke-linecap:round;stroke-linejoin:miter;stroke-miterlimit:4;stroke-dasharray:none;stroke-opacity:1"
       d="m 57.044173,105.47747 c 0.09047,-1.51095 -0.108511,-3.41057 -0.431271,-4.48034"
       id="path6896" />
    <path
       style="fill:none;stroke:#000000;stroke-width:1.25;stroke-linecap:butt;stroke-linejoin:miter;stroke-miterlimit:4;stroke-dasharray:none;stroke-opacity:1"
       d="m 48.730131,100.82607 0.614316,6.75381"
       id="path12285-3" />
    <path
       style="fill:none;stroke:#222222;stroke-width:0.842555;stroke-linecap:round;stroke-linejoin:miter;stroke-miterlimit:4;stroke-dasharray:none;stroke-opacity:1"
       d="m 65.025563,104.75705 c 0.09047,-1.51094 -0.131855,-3.52089 -0.454616,-4.59066"
       id="path19464" />
    <path
       style="fill:none;stroke:#222222;stroke-width:0.842433;stroke-linecap:round;stroke-linejoin:miter;stroke-miterlimit:4;stroke-dasharray:none;stroke-opacity:1"
       d="m 72.989706,104.13076 c 0.09047,-1.51095 -0.131874,-3.53175 -0.454635,-4.601517"
       id="path19466" />
    <path
       style="fill:none;stroke:#222222;stroke-width:0.842433;stroke-linecap:round;stroke-linejoin:miter;stroke-miterlimit:4;stroke-dasharray:none;stroke-opacity:1"
       d="m 81.150622,103.31351 c 0.09047,-1.51094 -0.211779,-3.348527 -0.534539,-4.418291"
       id="path19468" />
    <path
       style="fill:none;stroke:#222222;stroke-width:0.842433;stroke-linecap:round;stroke-linejoin:miter;stroke-miterlimit:4;stroke-dasharray:none;stroke-opacity:1"
       d="m 88.819433,102.60144 c 0.09047,-1.51095 -0.132874,-3.482703 -0.455634,-4.552467"
       id="path19470" />
    <path
       style="fill:none;stroke:#001592;stroke-width:1.32292;stroke-linecap:round;stroke-linejoin:round;stroke-miterlimit:4;stroke-dasharray:none;stroke-opacity:1"
       d="m 46.641574,109.69359 c 6.046802,1.66193 8.615545,0.19734 12.637353,-2.1248 5.6482,4.13284 9.947668,1.25102 13.676829,-0.8493 5.585649,4.6434 11.999651,2.61858 15.373118,-0.40821 4.177743,2.83807 6.680225,4.09932 13.326256,0.56558"
       id="path902" />
    <path
       style="fill:none;stroke:#000000;stroke-width:0.280851px;stroke-linecap:butt;stroke-linejoin:miter;stroke-opacity:1"
       d="M 47.308063,102.28517 Z"
       id="path29485" />
    <ellipse
       style="fill:#ecf0f0;fill-opacity:1;stroke:#000000;stroke-width:0.601449;stroke-linecap:round;stroke-linejoin:round;stroke-miterlimit:4;stroke-dasharray:none;stroke-opacity:1;paint-order:markers stroke fill"
       id="path5278"
       cx="63.538532"
       cy="94.664871"
       rx="2.5392706"
       ry="2.3839395"
       transform="matrix(0.99979654,-0.02017146,0.02016951,0.99979657,0,0)" />
    <path
       style="fill:none;stroke:#000000;stroke-width:0.300723px;stroke-linecap:butt;stroke-linejoin:miter;stroke-opacity:1"
       d="m 63.655622,93.880519 c 1.387946,1.994448 1.497617,0.400777 1.861238,0.361366 0.366398,-0.03973 0.800086,1.569152 1.696306,-0.723592"
       id="path5830" />
    <ellipse
       style="fill:#cdd7d7;fill-opacity:1;stroke:#000000;stroke-width:0.300723;stroke-linecap:round;stroke-linejoin:round;stroke-miterlimit:4;stroke-dasharray:none;stroke-opacity:1;paint-order:markers stroke fill"
       id="path7549"
       cx="63.499344"
       cy="94.768066"
       rx="0.73561609"
       ry="0.6940006"
       transform="matrix(0.99979654,-0.02017146,0.02016951,0.99979657,0,0)" />
    <path
       style="fill:none;stroke:#000000;stroke-width:0.300723px;stroke-linecap:butt;stroke-linejoin:miter;stroke-opacity:1"
       d="m 62.74362,93.802687 -2.734912,0.41402"
       id="path7877" />
    <path
       style="fill:none;stroke:#000000;stroke-width:0.300723px;stroke-linecap:butt;stroke-linejoin:miter;stroke-opacity:1"
       d="m 63.056565,94.636426 -2.423425,1.24004"
       id="path7879" />
    <path
       style="fill:none;stroke:#000000;stroke-width:0.300723px;stroke-linecap:butt;stroke-linejoin:miter;stroke-opacity:1"
       d="m 63.602679,95.384 -2.266763,1.863376"
       id="path7881" />
    <path
       style="fill:none;stroke:#000000;stroke-width:0.300723px;stroke-linecap:butt;stroke-linejoin:miter;stroke-opacity:1"
       d="m 68.04632,93.244296 2.725068,-0.350932"
       id="path7883" />
    <path
       style="fill:none;stroke:#000000;stroke-width:0.300723px;stroke-linecap:butt;stroke-linejoin:miter;stroke-opacity:1"
       d="m 68.061697,94.140568 2.566927,0.308587"
       id="path7885" />
    <path
       style="fill:none;stroke:#000000;stroke-width:0.300723px;stroke-linecap:butt;stroke-linejoin:miter;stroke-opacity:1"
       d="m 67.535457,94.969867 c 0.27358,0.04754 2.910905,0.954306 2.910905,0.954306"
       id="path7887" />
    <ellipse
       style="fill:#11243a;fill-opacity:1;stroke:#2a5a95;stroke-width:0.902172;stroke-linecap:round;stroke-linejoin:round;stroke-miterlimit:4;stroke-dasharray:none;stroke-opacity:1;paint-order:markers stroke fill"
       id="path8010"
       cx="59.515968"
       cy="92.975876"
       rx="1.0196074"
       ry="1.0676819"
       transform="matrix(0.99979654,-0.02017146,0.02016951,0.99979657,0,0)" />
    <ellipse
       style="fill:#ffffff;fill-opacity:1;stroke:none;stroke-width:1.02577;stroke-linecap:round;stroke-linejoin:round;stroke-miterlimit:4;stroke-dasharray:none;stroke-opacity:1;paint-order:markers stroke fill"
       id="path9314"
       cx="60.047298"
       cy="92.945175"
       rx="0.46523875"
       ry="0.45332843"
       transform="matrix(0.99979654,-0.02017146,0.02016951,0.99979657,0,0)" />
    <ellipse
       style="fill:#11243a;fill-opacity:1;stroke:#2a5a95;stroke-width:0.902172;stroke-linecap:round;stroke-linejoin:round;stroke-miterlimit:4;stroke-dasharray:none;stroke-opacity:1;paint-order:markers stroke fill"
       id="ellipse9979"
       cx="67.264412"
       cy="92.376198"
       rx="1.0196074"
       ry="1.0676819"
       transform="matrix(0.99979654,-0.02017146,0.02016951,0.99979657,0,0)" />
    <ellipse
       style="fill:#ffffff;fill-opacity:1;stroke:none;stroke-width:1.02577;stroke-linecap:round;stroke-linejoin:round;stroke-miterlimit:4;stroke-dasharray:none;stroke-opacity:1;paint-order:markers stroke fill"
       id="ellipse9981"
       cx="67.803055"
       cy="92.35733"
       rx="0.46523875"
       ry="0.45332843"
       transform="matrix(0.99979654,-0.02017146,0.02016951,0.99979657,0,0)" />
    <path
       style="fill:none;stroke:#000000;stroke-width:0.300723px;stroke-linecap:butt;stroke-linejoin:miter;stroke-opacity:1"
       d="m 62.466336,89.748692 c -0.975792,-0.378216 -1.897966,-0.324984 -2.734912,0.41402"
       id="path11158" />
    <path
       style="fill:none;stroke:#000000;stroke-width:0.300723px;stroke-linecap:butt;stroke-linejoin:miter;stroke-opacity:1"
       d="M 70.177284,88.987219 C 69.201492,88.609003 68.279318,88.662236 67.442371,89.40124"
       id="path11297" />
    <g
       id="g19396"
       transform="matrix(-0.61552789,0.10002693,0.10002693,0.61552789,99.044322,76.926029)">
      <path
         style="fill:#d4d8d8;fill-opacity:1;stroke:#000000;stroke-width:0.463678;stroke-linecap:butt;stroke-linejoin:miter;stroke-miterlimit:4;stroke-dasharray:none;stroke-opacity:1"
         d="m 43.96135,27.268002 c -0.112838,-1.213543 -0.560203,-1.781698 -0.852012,-2.485811 -0.39248,-0.947024 -0.403829,-2.544734 -0.849824,-4.355332 -0.862458,-2.746848 -2.622199,-4.202249 -6.290434,-4.074222 -3.673806,0.587365 -4.663155,2.312525 -5.212703,4.39934 -0.531049,2.138236 -0.544883,3.116495 -0.590686,3.920488 -0.04897,0.859534 -0.315249,1.12686 -0.895396,1.742544 -0.363136,0.38538 -1.219017,2.650223 -0.293154,3.390047 0.943543,0.753953 1.322847,0.264705 1.619172,-0.416787 0.253407,-0.582789 1.050009,-0.782098 1.007307,-1.174811"
         id="path1128-1" />
      <ellipse
         style="fill:#ecf0f0;fill-opacity:1;stroke:#000000;stroke-width:0.529167;stroke-linecap:round;stroke-linejoin:round;stroke-miterlimit:4;stroke-dasharray:none;stroke-opacity:1;paint-order:markers stroke fill"
         id="path5278-9"
         cx="36.875225"
         cy="25.620985"
         rx="2.2341583"
         ry="2.0973902" />
      <path
         style="fill:none;stroke:#000000;stroke-width:0.264583px;stroke-linecap:butt;stroke-linejoin:miter;stroke-opacity:1"
         d="m 35.300855,26.0438 c 1.185532,1.778989 1.310287,0.37911 1.63085,0.350895 0.323012,-0.02844 0.675961,1.394458 1.50502,-0.606382"
         id="path5830-4" />
      <ellipse
         style="fill:#cdd7d7;fill-opacity:1;stroke:#000000;stroke-width:0.264583;stroke-linecap:round;stroke-linejoin:round;stroke-miterlimit:4;stroke-dasharray:none;stroke-opacity:1;paint-order:markers stroke fill"
         id="path7549-7"
         cx="36.840752"
         cy="25.711782"
         rx="0.64722633"
         ry="0.61058176" />
      <path
         style="fill:none;stroke:#000000;stroke-width:0.264583px;stroke-linecap:butt;stroke-linejoin:miter;stroke-opacity:1"
         d="m 34.499981,25.959151 -2.413149,0.315645"
         id="path7877-8" />
      <path
         style="fill:none;stroke:#000000;stroke-width:0.264583px;stroke-linecap:butt;stroke-linejoin:miter;stroke-opacity:1"
         d="m 34.760471,26.698079 -2.153804,1.047758"
         id="path7879-4" />
      <path
         style="fill:none;stroke:#000000;stroke-width:0.264583px;stroke-linecap:butt;stroke-linejoin:miter;stroke-opacity:1"
         d="M 35.227601,27.365353 33.200545,28.96419"
         id="path7881-5" />
      <path
         style="fill:none;stroke:#000000;stroke-width:0.264583px;stroke-linecap:butt;stroke-linejoin:miter;stroke-opacity:1"
         d="m 39.174483,25.562085 2.403371,-0.260326"
         id="path7883-0" />
      <path
         style="fill:none;stroke:#000000;stroke-width:0.264583px;stroke-linecap:butt;stroke-linejoin:miter;stroke-opacity:1"
         d="m 39.172103,26.350737 2.252556,0.316994"
         id="path7885-3" />
      <path
         style="fill:none;stroke:#000000;stroke-width:0.264583px;stroke-linecap:butt;stroke-linejoin:miter;stroke-opacity:1"
         d="m 38.694473,27.070867 c 0.239815,0.04667 2.543681,0.891087 2.543681,0.891087"
         id="path7887-6" />
      <ellipse
         style="fill:#0c1a2a;fill-opacity:1;stroke:#2c61a0;stroke-width:0.79375;stroke-linecap:round;stroke-linejoin:round;stroke-miterlimit:4;stroke-dasharray:none;stroke-opacity:1;paint-order:markers stroke fill"
         id="path8010-1"
         cx="33.33601"
         cy="24.135006"
         rx="0.89709395"
         ry="0.93934661" />
      <ellipse
         style="fill:#ffffff;fill-opacity:1;stroke:none;stroke-width:0.902494;stroke-linecap:round;stroke-linejoin:round;stroke-miterlimit:4;stroke-dasharray:none;stroke-opacity:1;paint-order:markers stroke fill"
         id="path9314-0"
         cx="32.86314"
         cy="24.435141"
         rx="0.40933684"
         ry="0.3988384" />
      <ellipse
         style="fill:#0c1a2a;fill-opacity:1;stroke:#2c61a0;stroke-width:0.79375;stroke-linecap:round;stroke-linejoin:round;stroke-miterlimit:4;stroke-dasharray:none;stroke-opacity:1;paint-order:markers stroke fill"
         id="ellipse9979-6"
         cx="40.153423"
         cy="23.607412"
         rx="0.89709395"
         ry="0.93934661" />
      <ellipse
         style="fill:#ffffff;fill-opacity:1;stroke:none;stroke-width:0.902494;stroke-linecap:round;stroke-linejoin:round;stroke-miterlimit:4;stroke-dasharray:none;stroke-opacity:1;paint-order:markers stroke fill"
         id="ellipse9981-3"
         cx="39.677834"
         cy="23.782425"
         rx="0.40933684"
         ry="0.3988384" />
      <path
         style="fill:none;stroke:#000000;stroke-width:0.264583px;stroke-linecap:butt;stroke-linejoin:miter;stroke-opacity:1"
         d="m 34.328006,22.388251 c -0.851656,-0.350004 -1.663803,-0.319546 -2.41315,0.315645"
         id="path11158-2" />
      <path
         style="fill:none;stroke:#000000;stroke-width:0.264583px;stroke-linecap:butt;stroke-linejoin:miter;stroke-opacity:1"
         d="m 41.124559,21.855289 c -0.851657,-0.350004 -1.663804,-0.319546 -2.41315,0.315645"
         id="path11297-0" />
    </g>
    <path
       style="fill:none;stroke:#222222;stroke-width:0.842433;stroke-linecap:round;stroke-linejoin:miter;stroke-miterlimit:4;stroke-dasharray:none;stroke-opacity:1"
       d="m 96.836396,101.56841 c 0.05594,-1.51263 -0.275421,-3.24551 -0.622524,-4.307625"
       id="path31739" />
    <text
       xml:space="preserve"
       style="font-weight:bold;font-size:23.6394px;line-height:1.25;font-family:'Liberation Mono';-inkscape-font-specification:'Liberation Mono Bold';stroke-width:0.2;stroke-miterlimit:4;stroke-dasharray:none"
       x="112.04967"
       y="105.58327"
       id="text2046"><tspan
         id="tspan2044"
         style="fill:#2c61a0;fill-opacity:1;stroke:#ffffff;stroke-width:0.2;stroke-miterlimit:4;stroke-dasharray:none;stroke-opacity:1"
         x="112.04967"
         y="105.58327">pod<tspan
   style="fill:#222222;fill-opacity:1;stroke:#ffffff;stroke-width:0.2;stroke-miterlimit:4;stroke-dasharray:none;stroke-opacity:1"
   id="tspan24596">tender</tspan></tspan></text>
  </g>
</svg>
